HIERARCHY
ROOT Hips
{
  OFFSET 1.44925e-005 102.336 -0.101585
  CHANNELS 6 Xposition Yposition Zposition Zrotation Xrotation Yrotation
  JOINT LeftUpLeg
  {
    OFFSET 8.9458 -8.66707 0.101652
    CHANNELS 3 Zrotation Xrotation Yrotation
    JOINT LeftLeg
    {
      OFFSET 0 -44.4227 1.3727
      CHANNELS 3 Zrotation Xrotation Yrotation
      JOINT LeftFoot
      {
        OFFSET -0.253549 -42.0924 -1.46059
        CHANNELS 3 Zrotation Xrotation Yrotation
        JOINT LeftToes
        {
          OFFSET -0.04 -4.41509 8.4991
          CHANNELS 3 Zrotation Xrotation Yrotation
          End Site
          {
            OFFSET 0.08 -0.047448 9.77979
          }
        }
      }
    }
  }
  JOINT Spine
  {
    OFFSET 0 11.8905 0
    CHANNELS 3 Zrotation Xrotation Yrotation
    JOINT Spine1
    {
      OFFSET 0 25.6574 0.127663
      CHANNELS 3 Zrotation Xrotation Yrotation
      JOINT RightShoulder
      {
        OFFSET -8.99 -0.362252 -0.22
        CHANNELS 3 Zrotation Xrotation Yrotation
        JOINT RightArm
        {
          OFFSET -10.2827 -0.00338 0.322123
          CHANNELS 3 Zrotation Xrotation Yrotation
          JOINT RightForeArm
          {
            OFFSET -26.364 0.099144 -1.42434
            CHANNELS 3 Zrotation Xrotation Yrotation
            JOINT RightHand
            {
              OFFSET -22.0324 0.085362 1.02216
              CHANNELS 3 Zrotation Xrotation Yrotation
              End Site
              {
                OFFSET -13.3284 -0.6 1.50291
              }
            }
          }
        }
      }
      JOINT LeftShoulder1
      {
        OFFSET 8.99 -0.362252 -0.22
        CHANNELS 3 Zrotation Xrotation Yrotation
        JOINT LeftArm
        {
          OFFSET 10.2827 -0.00337999 0.322123
          CHANNELS 3 Zrotation Xrotation Yrotation
          JOINT LeftForeArm
          {
            OFFSET 26.2597 0.099144 -1.42434
            CHANNELS 3 Zrotation Xrotation Yrotation
            JOINT LeftHand
            {
              OFFSET 22.0902 0.085362 1.02216
              CHANNELS 3 Zrotation Xrotation Yrotation
              End Site
              {
                OFFSET 13.419 -0.6 1.50291
              }
            }
          }
        }
      }
      JOINT Head
      {
        OFFSET 0 8.73416 0.011341
        CHANNELS 3 Zrotation Xrotation Yrotation
        End Site
        {
          OFFSET -0.29 12.7742 2.51395
        }
      }
    }
  }
  JOINT RightUpLeg
  {
    OFFSET -8.9458 -8.66707 0.101652
    CHANNELS 3 Zrotation Xrotation Yrotation
    JOINT RightLeg
    {
      OFFSET 0 -44.4227 1.3727
      CHANNELS 3 Zrotation Xrotation Yrotation
      JOINT RightFoot
      {
        OFFSET 0.253549 -42.0924 -1.46059
        CHANNELS 3 Zrotation Xrotation Yrotation
        JOINT RightToes
        {
          OFFSET 0.04 -4.41509 8.4991
          CHANNELS 3 Zrotation Xrotation Yrotation
          End Site
          {
            OFFSET -0.08 -0.137448 9.77979
          }
        }
      }
    }
  }
}
MOTION
Frames:	15
Frame Time:	0.0333333
185.637 102.819 7.81569 -4.42813 0.0303944 -93.4897 -1.21988 2.24158 2.92522 -0.503386 10.2746 22.1994 -1.93457 -12.5461 -0.0196413 -1.32679e-009 8.75222e-006 -1.46288e-008 -0.638233 6.62413 -0.220293 -0.55251 -10.2277 -0.185227 36.2979 1.71185 0.0067218 41.6544 -22.8235 1.83505 8.93588 42.2968 5.28526 -9.76931 9.45174 0.152693 -41.5721 3.37398 -3.53313 -30.5089 -16.0262 7.46923 -5.25164 39.91 -12.6756 5.82328 9.61819 -0.917488 0.165905 4.93471 -0.267352 -2.57004 1.5632 -3.92495 -1.81917 12.0681 -5.34435 6.5241 -13.5593 0.136065 0.0462048 0.000530889 0.662642 
185.637 102.819 7.82611 -4.41083 0.0147831 -93.4394 -1.24684 2.21728 2.8962 -0.490418 10.2759 22.1821 -1.91264 -12.5461 -0.0196413 -1.32679e-009 8.75222e-006 -1.46288e-008 -0.69171 6.57106 -0.235656 -0.508569 -10.1423 -0.205798 36.3749 1.71185 0.00727761 41.5635 -22.6981 1.86469 8.97837 42.0906 5.28921 -9.99273 9.45176 0.103933 -41.5185 3.37391 -3.53464 -30.6132 -16.1815 7.39535 -5.26154 40.0531 -12.6232 5.82328 9.61819 -0.917488 0.0993446 4.92037 -0.264575 -2.5928 1.54759 -3.9421 -1.81129 12.0794 -5.40913 6.5751 -13.5682 0.13607 0.0462048 0.000530889 0.662642 
185.636 102.819 7.84091 -4.37342 -0.0206053 -93.3668 -1.29582 2.16906 2.84693 -0.482801 10.2768 22.1689 -1.87235 -12.5451 -0.0196412 -1.32679e-009 8.75222e-006 -1.46288e-008 -0.793953 6.54176 -0.2444 -0.430897 -10.0917 -0.223195 36.4511 1.71185 0.0109303 41.4251 -22.5451 1.82728 8.99268 41.8182 5.35495 -10.1368 9.45243 0.114333 -41.5089 3.37621 -3.5412 -30.7058 -16.255 7.31595 -5.23483 40.1479 -12.6324 5.82328 9.61819 -0.917488 0.0392888 4.89428 -0.215455 -2.63912 1.49838 -3.97358 -1.8035 12.1176 -5.46493 6.60722 -13.5819 0.136091 0.0462048 0.000530889 0.662642 
185.631 102.819 7.85232 -4.35723 -0.0461447 -93.3296 -1.32743 2.14959 2.82013 -0.488474 10.2786 22.164 -1.85915 -12.5435 -0.0196411 -1.32679e-009 8.75222e-006 -1.46288e-008 -0.869344 6.61682 -0.221428 -0.375249 -10.1696 -0.206215 36.3919 1.71185 0.0185225 41.3821 -22.5219 1.66847 8.90784 41.8252 5.48817 -9.9689 9.45527 0.228722 -41.6055 3.38735 -3.54918 -30.685 -16.0706 7.30797 -5.16026 40.0617 -12.752 5.82328 9.61819 -0.917488 0.303472 4.95668 -0.031477 -2.67241 1.46985 -3.99693 -1.8037 12.1532 -5.46499 6.59168 -13.5972 0.136456 0.0462048 0.000530889 0.662642 
185.621 102.817 7.86389 -4.36928 -0.0433504 -93.3484 -1.32921 2.16715 2.82714 -0.495936 10.2865 22.1741 -1.87282 -12.5526 -0.0196418 -1.32679e-009 8.75222e-006 -1.46288e-008 -0.875992 6.76167 -0.183647 -0.367358 -10.3244 -0.169845 36.2284 1.71058 0.0231047 41.4508 -22.6608 1.48813 8.77805 42.272 5.56591 -9.61769 9.45787 0.390664 -41.7363 3.40061 -3.55611 -30.6157 -15.787 7.37988 -5.13479 39.8105 -12.8536 5.82328 9.61819 -0.917488 1.00431 5.21999 0.337098 -2.67674 1.47845 -3.99755 -1.81125 12.1671 -5.43216 6.59126 -13.6135 0.137417 0.0462048 0.000530889 0.662642 
185.614 102.816 7.87886 -4.37192 -0.0308327 -93.4046 -1.32897 2.17266 2.83643 -0.500983 10.2999 22.2214 -1.87166 -12.5707 -0.0196432 -1.32679e-009 8.75222e-006 -1.46288e-008 -0.838131 6.89405 -0.161709 -0.406538 -10.474 -0.144984 36.1173 1.70632 0.0225237 41.5125 -22.8716 1.39724 8.71655 42.9248 5.48258 -9.3371 9.4599 0.510348 -41.7955 3.40703 -3.5601 -30.603 -15.6393 7.49137 -5.22781 39.4892 -12.8197 5.82328 9.61819 -0.917488 1.70302 5.56208 0.757001 -2.67418 1.46725 -3.98246 -1.82272 12.1862 -5.39577 6.6235 -13.6245 0.138584 0.0462048 0.000530889 0.662642 
185.615 102.814 7.8934 -4.35836 -0.0316962 -93.4539 -1.34909 2.15719 2.82195 -0.49596 10.3058 22.2912 -1.85253 -12.5816 -0.019644 -1.32679e-009 8.75222e-006 -1.46288e-008 -0.782945 6.9925 -0.163033 -0.505556 -10.5896 -0.136673 36.1523 1.70362 0.0198221 41.467 -23.0243 1.36765 8.76193 43.3285 5.30351 -9.31146 9.45783 0.561175 -41.7526 3.4023 -3.55704 -30.6618 -15.6679 7.58274 -5.34953 39.3157 -12.7093 5.82328 9.61819 -0.917488 1.84176 5.68569 0.976487 -2.68384 1.42709 -3.97248 -1.83494 12.2235 -5.36814 6.63366 -13.6283 0.139923 0.0462048 0.000530889 0.662642 
185.608 102.813 7.90585 -4.36565 -0.0387036 -93.4574 -1.37531 2.16974 2.79698 -0.481745 10.3037 22.3226 -1.85399 -12.5855 -0.0196443 -1.32679e-009 8.75222e-006 -1.46288e-008 -0.715931 7.06677 -0.178158 -0.643434 -10.6437 -0.136657 36.2577 1.70155 0.016625 41.3545 -23.0658 1.31793 8.85139 43.3071 5.17576 -9.54176 9.44161 0.619677 -41.6849 3.39297 -3.54837 -30.7148 -15.8023 7.60982 -5.37015 39.5264 -12.6344 5.82328 9.61819 -0.917488 1.43103 5.52825 0.880214 -2.69628 1.43074 -3.97916 -1.84519 12.2421 -5.35361 6.61482 -13.6357 0.141408 0.0462048 0.000530889 0.662642 
185.583 102.812 7.92165 -4.39405 -0.0395387 -93.4245 -1.39143 2.21124 2.7829 -0.469577 10.3093 22.3001 -1.87574 -12.6029 -0.0196456 -1.32679e-009 8.75222e-006 -1.46288e-008 -0.679738 7.06511 -0.194649 -0.706952 -10.5632 -0.144571 36.2805 1.70015 0.0122458 41.302 -23.0525 1.27168 8.91443 43.1242 5.1375 -9.79319 9.42022 0.729327 -41.7092 3.39419 -3.54707 -30.6915 -16.0538 7.56577 -5.32392 40.0723 -12.5662 5.82328 9.61819 -0.917488 0.935457 5.3521 0.588763 -2.70408 1.48818 -3.99317 -1.85435 12.2283 -5.35076 6.62572 -13.6542 0.14301 0.0462048 0.000530889 0.662642 
185.555 102.812 7.94314 -4.39239 -0.0451469 -93.4098 -1.41141 2.21756 2.77165 -0.469313 10.3265 22.2964 -1.8744 -12.6362 -0.0196482 -1.32679e-009 8.75222e-006 -1.46288e-008 -0.719158 6.95626 -0.197077 -0.631919 -10.3667 -0.152887 36.1891 1.69946 0.00714795 41.3441 -23.0622 1.282 8.93338 43.0684 5.12857 -9.8004 9.41565 0.784049 -41.8287 3.40909 -3.55913 -30.6269 -16.4128 7.49725 -5.34 40.5869 -12.4247 5.82328 9.61819 -0.917488 0.602679 5.28224 0.285782 -2.72121 1.50427 -4.00165 -1.86554 12.228 -5.34474 6.66734 -13.675 0.144692 0.0462048 0.000530889 0.662642 
185.537 102.811 7.96614 -4.3407 -0.0654064 -93.4382 -1.45178 2.17204 2.74063 -0.471545 10.3277 22.3632 -1.84482 -12.6559 -0.0196497 -1.32679e-009 8.75222e-006 -1.46288e-008 -0.770843 6.86683 -0.186665 -0.560687 -10.2742 -0.148692 36.1453 1.69951 0.00448795 41.3395 -23.0879 1.26571 8.92379 43.0772 5.1344 -9.61581 9.43338 0.678514 -41.873 3.41604 -3.56654 -30.6463 -16.6988 7.49496 -5.4036 40.8125 -12.2825 5.82328 9.61819 -0.917488 0.317602 5.12167 0.0407214 -2.75571 1.43871 -4.01062 -1.87541 12.2583 -5.31809 6.68746 -13.69 0.146453 0.0462048 0.000530889 0.662642 
185.518 102.811 7.98882 -4.27498 -0.0855497 -93.4631 -1.49748 2.12686 2.69232 -0.462384 10.2937 22.4409 -1.82763 -12.6464 -0.019649 -1.32679e-009 8.75222e-006 -1.46288e-008 -0.743558 6.93815 -0.193634 -0.641716 -10.4603 -0.146878 36.2952 1.7032 0.00575074 41.1556 -23.0832 1.1161 8.90155 42.9611 5.17677 -9.52369 9.45153 0.498499 -41.72 3.3971 -3.55139 -30.7977 -16.7558 7.60288 -5.41182 40.8614 -12.258 5.82328 9.61819 -0.917488 0.0105768 4.78514 -0.171684 -2.79221 1.36969 -4.03131 -1.87662 12.2664 -5.2795 6.70285 -13.6996 0.148796 0.0462048 0.000530889 0.662642 
185.49 102.809 8.01136 -4.23 -0.0917121 -93.4408 -1.52257 2.11123 2.65812 -0.452758 10.2564 22.4501 -1.83391 -12.6377 -0.0196483 -1.32679e-009 8.75222e-006 -1.46288e-008 -0.705643 7.08926 -0.233646 -0.742085 -10.7511 -0.178241 36.523 1.71249 0.00814788 40.9145 -23.1056 0.940921 8.89854 42.8365 5.19324 -9.58742 9.45653 0.387024 -41.5135 3.37085 -3.52933 -30.9584 -16.7127 7.73402 -5.39504 40.9346 -12.2694 5.82328 9.61819 -0.917488 -0.279833 4.4774 -0.384151 -2.8157 1.35856 -4.05511 -1.87111 12.2311 -5.2629 6.75396 -13.7016 0.151102 0.0462048 0.000530889 0.662642 
185.456 102.806 8.03018 -4.22027 -0.0932454 -93.4005 -1.53067 2.12133 2.65554 -0.458277 10.2529 22.4134 -1.83373 -12.6605 -0.0196501 -1.32679e-009 8.75222e-006 -1.46288e-008 -0.774755 7.16625 -0.276348 -0.673301 -10.8706 -0.231427 36.5996 1.71876 0.00857754 40.8708 -23.2596 0.93659 8.9237 42.98 5.07939 -9.62384 9.45985 0.318028 -41.4419 3.36299 -3.5242 -31.0106 -16.8113 7.77546 -5.47465 41.0322 -12.1539 5.82328 9.61819 -0.917488 -0.613237 4.33238 -0.581746 -2.83178 1.38705 -4.07321 -1.86572 12.2058 -5.27709 6.78684 -13.7013 0.152169 0.0462048 0.000530889 0.662642 
185.424 102.801 8.04796 -4.25238 -0.0958891 -93.3811 -1.54626 2.16949 2.65945 -0.459021 10.2642 22.3968 -1.81849 -12.6982 -0.019653 -1.32679e-009 8.75222e-006 -1.46288e-008 -0.841734 7.24742 -0.299365 -0.603301 -10.9155 -0.26479 36.5546 1.71947 0.00542609 41.0203 -23.4532 1.04334 8.98404 43.2766 4.87715 -9.60921 9.46791 0.219632 -41.4094 3.36023 -3.52354 -31.0271 -17.0069 7.7684 -5.59773 41.0622 -11.9878 5.82328 9.61819 -0.917488 -0.895085 4.37023 -0.666449 -2.85262 1.44376 -4.10297 -1.85498 12.2091 -5.28064 6.76361 -13.7202 0.152333 0.0462048 0.000530889 0.662642 
